<svg width="37" height="37" viewBox="0 0 37 37" fill="none" xmlns="http://www.w3.org/2000/svg">
<path opacity="0.1" fill-rule="evenodd" clip-rule="evenodd" d="M18.5 36C28.165 36 36 28.165 36 18.5C36 8.83502 28.165 1 18.5 1C8.83502 1 1 8.83502 1 18.5C1 28.165 8.83502 36 18.5 36Z" stroke="white" stroke-width="1.5"/>
<path d="M22.3335 14.6667C23.6596 14.6667 24.9313 15.1935 25.869 16.1312C26.8067 17.0689 27.3335 18.3407 27.3335 19.6667V25.5001H24.0002V19.6667C24.0002 19.2247 23.8246 18.8008 23.512 18.4882C23.1994 18.1757 22.7755 18.0001 22.3335 18.0001C21.8915 18.0001 21.4675 18.1757 21.155 18.4882C20.8424 18.8008 20.6668 19.2247 20.6668 19.6667V25.5001H17.3335V19.6667C17.3335 18.3407 17.8603 17.0689 18.798 16.1312C19.7356 15.1935 21.0074 14.6667 22.3335 14.6667Z" fill="white"/>
<path d="M13.9998 15.5H10.6665V25.5H13.9998V15.5Z" fill="white"/>
<path d="M12.3332 13.0001C13.2536 13.0001 13.9998 12.2539 13.9998 11.3334C13.9998 10.4129 13.2536 9.66675 12.3332 9.66675C11.4127 9.66675 10.6665 10.4129 10.6665 11.3334C10.6665 12.2539 11.4127 13.0001 12.3332 13.0001Z" fill="white"/>
</svg>
