<svg width="37" height="37" viewBox="0 0 37 37" fill="none" xmlns="http://www.w3.org/2000/svg">
<path opacity="0.1" fill-rule="evenodd" clip-rule="evenodd" d="M18.5 36C28.165 36 36 28.165 36 18.5C36 8.83502 28.165 1 18.5 1C8.83502 1 1 8.83502 1 18.5C1 28.165 8.83502 36 18.5 36Z" stroke="white" stroke-width="1.5"/>
<path d="M24.0002 9.66675H21.5002C20.3951 9.66675 19.3353 10.1057 18.5539 10.8871C17.7725 11.6685 17.3335 12.7283 17.3335 13.8334V16.3334H14.8335V19.6667H17.3335V26.3334H20.6668V19.6667H23.1668L24.0002 16.3334H20.6668V13.8334C20.6668 13.6124 20.7546 13.4004 20.9109 13.2442C21.0672 13.0879 21.2791 13.0001 21.5002 13.0001H24.0002V9.66675Z" fill="white"/>
</svg>
