<svg width="24" height="24" viewBox="0 0 24 24" fill="none" xmlns="http://www.w3.org/2000/svg">
<rect y="1.52588e-05" width="24" height="24" rx="12" fill="white"/>
<path fill-rule="evenodd" clip-rule="evenodd" d="M15.9388 9.15011C15.2585 9.22592 14.5921 9.24808 13.9495 9.3826C12.4566 9.69712 11.2288 10.4564 10.37 11.7409C9.62512 12.8548 9.47272 14.072 9.80746 15.3593C9.82573 15.4292 9.84711 15.4996 9.88054 15.6197C9.47777 15.5956 9.09599 15.5991 8.72394 15.5439C8.25196 15.4732 7.78815 15.3503 7.31851 15.2613C7.22831 15.2446 7.11479 15.2574 7.03393 15.3002C6.45854 15.598 5.88898 15.907 5.31709 16.2122C5.24011 16.2531 5.1608 16.2904 5.03873 16.3502C5.06827 16.2387 5.08305 16.1648 5.10715 16.0937C5.26538 15.6182 5.41856 15.1415 5.58884 14.6715C5.64133 14.5249 5.61295 14.455 5.48776 14.3663C4.47656 13.6471 3.68967 12.7405 3.33355 11.5341C2.72784 9.48252 3.34327 7.7579 4.88555 6.36297C6.37651 5.01509 8.18237 4.52601 10.1651 4.66908C11.6452 4.77521 12.9826 5.27596 14.1264 6.23468C15.0015 6.9683 15.6158 7.8792 15.905 8.99577C15.9178 9.04514 15.9299 9.09529 15.9381 9.14622C15.9416 9.16449 15.9299 9.18588 15.9388 9.15011ZM12.6852 8.2186C12.7007 7.73186 12.3038 7.31042 11.8131 7.29059C11.298 7.27154 10.8999 7.64905 10.8851 8.17312C10.8711 8.66686 11.2475 9.08441 11.721 9.10268C12.2334 9.12134 12.6696 8.72129 12.6852 8.2186ZM8.2438 8.19722C8.24846 7.72097 7.82625 7.29604 7.34222 7.28904C6.83448 7.28204 6.44221 7.67937 6.43793 8.20461C6.43404 8.68902 6.83837 9.10151 7.31657 9.10074C7.82742 9.09918 8.23913 8.69835 8.2438 8.19722Z" fill="#33065B"/>
<path fill-rule="evenodd" clip-rule="evenodd" d="M19.1459 19.2956C18.9795 19.2062 18.8139 19.1148 18.6471 19.027C18.2898 18.8388 17.9462 18.6079 17.5687 18.4749C17.1717 18.3353 16.7884 18.5935 16.3938 18.6479C14.6124 18.8909 12.9838 18.5461 11.5823 17.3906C9.43664 15.6213 9.43897 12.667 11.58 10.8914C12.8139 9.86779 14.2575 9.47318 15.8421 9.57776C17.1041 9.66135 18.2479 10.0742 19.219 10.8988C21.3421 12.7016 21.3421 15.5634 19.2272 17.3743C19.2167 17.384 19.2046 17.3933 19.193 17.4023C19.039 17.536 18.7988 17.646 18.7548 17.8093C18.7097 17.9757 18.8567 18.1942 18.9189 18.3902C19.0102 18.681 19.1024 18.9718 19.1938 19.2633C19.177 19.2742 19.1615 19.2847 19.1459 19.2956ZM14.4767 12.6744C14.4767 12.2945 14.1179 11.9376 13.7361 11.9376C13.3361 11.9376 13.0192 12.2689 13.0223 12.6833C13.0254 13.0698 13.3415 13.3866 13.7276 13.3893C14.1381 13.3924 14.4767 13.069 14.4767 12.6744ZM18.0434 12.6802C18.0418 12.2899 17.6974 11.94 17.3152 11.94C16.9493 11.94 16.5645 12.2984 16.5606 12.6433C16.5563 13.032 16.9237 13.3952 17.3152 13.3889C17.7148 13.3827 18.0441 13.0624 18.0434 12.6802Z" fill="#33065B"/>
</svg>
