<svg width="24" height="24" viewBox="0 0 24 24" fill="none" xmlns="http://www.w3.org/2000/svg">
<rect y="1.52588e-05" width="24" height="24" rx="12" fill="white"/>
<path fill-rule="evenodd" clip-rule="evenodd" d="M12 3.37502C7.23849 3.37502 3.375 7.23851 3.375 12C3.375 16.7615 7.23849 20.625 12 20.625C16.7522 20.625 20.625 16.7615 20.625 12C20.625 7.23851 16.7522 3.37502 12 3.37502ZM17.697 7.3508C18.726 8.60436 19.3435 10.204 19.3621 11.9345C19.1189 11.8877 16.6866 11.392 14.2358 11.7007C14.1797 11.5791 14.1328 11.448 14.0767 11.3171C13.927 10.9617 13.7586 10.5969 13.5903 10.2507C16.3032 9.14686 17.5379 7.55659 17.697 7.3508ZM12 4.6472C13.871 4.6472 15.5828 5.34893 16.8831 6.49952C16.7522 6.68651 15.6389 8.17395 13.0196 9.15619C11.8128 6.9392 10.4753 5.12434 10.2695 4.84369C10.8213 4.71277 11.4012 4.6472 12 4.6472ZM8.86619 5.33946C9.06268 5.60148 10.3723 7.42567 11.5977 9.5959C8.1553 10.5125 5.11499 10.4939 4.78761 10.4939C5.26455 8.21138 6.80809 6.31233 8.86619 5.33946ZM4.62856 12.0093V11.7849C4.94664 11.7942 8.52015 11.841 12.1965 10.7371C12.4116 11.1487 12.6081 11.5696 12.795 11.9907C12.7016 12.0188 12.5988 12.0468 12.5051 12.0749C8.70714 13.3003 6.68649 16.6492 6.51814 16.9299C5.34891 15.6296 4.62856 13.8991 4.62856 12.0093ZM12 19.3715C10.2974 19.3715 8.72594 18.7915 7.48171 17.8186C7.61264 17.5473 9.10941 14.6662 13.2629 13.2161C13.2815 13.2068 13.291 13.2068 13.3096 13.1973C14.3481 15.8821 14.769 18.1367 14.8813 18.7822C13.9925 19.1657 13.0196 19.3715 12 19.3715ZM16.1067 18.1086C16.0319 17.6596 15.6391 15.508 14.6755 12.8606C16.9861 12.4958 19.0066 13.0945 19.2592 13.1787C18.9412 15.2273 17.7625 16.9954 16.1067 18.1086Z" fill="#33065B"/>
</svg>
